<svg width="26" height="26" viewBox="0 0 26 26" fill="none" xmlns="http://www.w3.org/2000/svg">
<g clip-path="url(#clip0_462_27581)">
<path d="M1.62505 1.76915C-0.418114 3.8914 5.31077e-05 6.14582 5.31077e-05 12.9947C5.31077e-05 18.6822 -0.99228 24.3837 4.20122 25.726C5.82297 26.1431 20.1923 26.1431 21.8119 25.7238C23.9742 25.1659 25.7336 23.412 25.9741 20.3537C26.0076 19.9269 26.0076 6.06999 25.973 5.63449C25.7173 2.3769 23.7121 0.499487 21.0698 0.119237C20.4642 0.0314873 20.3429 0.00548727 17.2359 7.06092e-05C6.21514 0.00548727 3.7993 -0.485263 1.62505 1.76915Z" fill="url(#paint0_linear_462_27581)"/>
<path d="M12.9979 3.40087C9.06433 3.40087 5.329 3.05095 3.90225 6.71262C3.31292 8.22495 3.3985 10.189 3.3985 13.0014C3.3985 15.4692 3.31942 17.7886 3.90225 19.289C5.32575 22.9529 9.09142 22.6019 12.9958 22.6019C16.7625 22.6019 20.6463 22.994 22.0903 19.289C22.6808 17.7615 22.5941 15.8267 22.5941 13.0014C22.5941 9.25087 22.801 6.82962 20.9821 5.01178C19.1404 3.17012 16.6498 3.40087 12.9936 3.40087H12.9979ZM12.1378 5.13095C20.3429 5.11795 21.3873 4.20578 20.8109 16.8775C20.6062 21.3593 17.1937 20.8675 12.999 20.8675C5.35067 20.8675 5.13075 20.6486 5.13075 12.997C5.13075 5.25662 5.73742 5.13528 12.1378 5.12878V5.13095ZM18.1221 6.72453C17.8167 6.72453 17.5238 6.84586 17.3078 7.06182C17.0918 7.27779 16.9705 7.5707 16.9705 7.87612C16.9705 8.18154 17.0918 8.47445 17.3078 8.69041C17.5238 8.90637 17.8167 9.0277 18.1221 9.0277C18.4275 9.0277 18.7204 8.90637 18.9364 8.69041C19.1523 8.47445 19.2737 8.18154 19.2737 7.87612C19.2737 7.5707 19.1523 7.27779 18.9364 7.06182C18.7204 6.84586 18.4275 6.72453 18.1221 6.72453ZM12.9979 8.07112C12.3505 8.07119 11.7095 8.19877 11.1114 8.44658C10.5134 8.69438 9.96996 9.05756 9.51225 9.51538C8.58785 10.44 8.06861 11.6939 8.06875 13.0014C8.06889 14.3088 8.58841 15.5626 9.51301 16.487C10.4376 17.4114 11.6916 17.9307 12.999 17.9305C14.3064 17.9304 15.5603 17.4109 16.4847 16.4863C17.4091 15.5617 17.9283 14.3077 17.9282 13.0003C17.928 11.6928 17.4085 10.439 16.4839 9.51461C15.5593 8.59021 14.3054 8.07097 12.9979 8.07112ZM12.9979 9.8012C17.2283 9.8012 17.2338 16.2015 12.9979 16.2015C8.76858 16.2015 8.76208 9.8012 12.9979 9.8012Z" fill="white"/>
</g>
<defs>
<linearGradient id="paint0_linear_462_27581" x1="1.67491" y1="24.3394" x2="25.8392" y2="3.42554" gradientUnits="userSpaceOnUse">
<stop stop-color="#FFDD55"/>
<stop offset="0.5" stop-color="#FF543E"/>
<stop offset="1" stop-color="#C837AB"/>
</linearGradient>
<clipPath id="clip0_462_27581">
<rect width="26" height="26" fill="white"/>
</clipPath>
</defs>
</svg>
