<svg width="26" height="26" viewBox="0 0 26 26" fill="none" xmlns="http://www.w3.org/2000/svg">
<path d="M0 12.4583C0 6.58541 0 3.64894 1.82447 1.82447C3.64894 0 6.58541 0 12.4583 0H13.5416C19.4145 0 22.351 0 24.1755 1.82447C26 3.64894 26 6.58541 26 12.4583V13.5416C26 19.4145 26 22.351 24.1755 24.1755C22.3511 26 19.4146 26 13.5417 26H12.4584C6.58546 26 3.64899 26 1.82452 24.1755C0 22.3511 0 19.4146 0 13.5417V12.4583Z" fill="#2787F5"/>
<path fill-rule="evenodd" clip-rule="evenodd" d="M7.04215 8.125H5.14588C4.60409 8.125 4.49573 8.38002 4.49573 8.66115C4.49573 9.16332 5.13862 11.6538 7.48908 14.9478C9.05609 17.1973 11.2638 18.4166 13.2728 18.4166C14.4782 18.4166 14.6272 18.1458 14.6272 17.6793V15.9791C14.6272 15.4374 14.7415 15.3293 15.1231 15.3293C15.4044 15.3293 15.8865 15.4699 17.0115 16.5545C18.2973 17.84 18.5092 18.4166 19.2324 18.4166H21.1287C21.6705 18.4166 21.9414 18.1458 21.7851 17.6113C21.6141 17.0786 21.0002 16.3058 20.1857 15.3897C19.7437 14.8674 19.0807 14.3051 18.8798 14.0239C18.5986 13.6623 18.6789 13.5016 18.8798 13.1803C18.8798 13.1803 21.1902 9.92652 21.4312 8.82192C21.5517 8.42019 21.4312 8.125 20.8577 8.125H18.9615C18.4794 8.125 18.257 8.38002 18.1365 8.66115C18.1365 8.66115 17.1722 11.0111 15.8061 12.5376C15.3641 12.9794 15.1632 13.12 14.9221 13.12C14.8016 13.12 14.6271 12.9794 14.6271 12.5778V8.82192C14.6271 8.33986 14.4872 8.125 14.0854 8.125H11.1055C10.8042 8.125 10.623 8.34869 10.623 8.56075C10.623 9.01768 11.3061 9.12311 11.3764 10.4085V13.2004C11.3764 13.8124 11.2658 13.9235 11.0248 13.9235C10.3819 13.9235 8.81818 11.563 7.89076 8.86199C7.70911 8.33706 7.52681 8.125 7.04215 8.125Z" fill="white"/>
</svg>
