<svg width="26" height="26" viewBox="0 0 26 26" fill="none" xmlns="http://www.w3.org/2000/svg">
<path fill-rule="evenodd" clip-rule="evenodd" d="M19.5015 26H6.50146C4.77756 26 3.12426 25.3152 1.90527 24.0962C0.686284 22.8772 0.00146484 21.2239 0.00146484 19.5V6.5C0.00146484 4.77609 0.686284 3.12279 1.90527 1.90381C3.12426 0.68482 4.77756 0 6.50146 0L19.5015 0C21.2254 0 22.8787 0.68482 24.0977 1.90381C25.3166 3.12279 26.0015 4.77609 26.0015 6.5V19.5C26.0015 21.2239 25.3166 22.8772 24.0977 24.0962C22.8787 25.3152 21.2254 26 19.5015 26Z" fill="#199BDF"/>
<path fill-rule="evenodd" clip-rule="evenodd" d="M12.189 7.3125H19.5015C20.4396 7.31368 21.3422 6.95423 22.0227 6.30852C22.7032 5.66281 23.1095 4.78023 23.1575 3.84336C23.2055 2.90649 22.8916 1.98701 22.2806 1.27512C21.6697 0.563234 20.8085 0.113405 19.8752 0.0186875C19.7509 0.0117812 19.6278 0 19.5015 0H6.50146C4.77756 0 3.12426 0.68482 1.90527 1.90381C0.686284 3.12279 0.00146484 4.77609 0.00146484 6.5L0.00146484 19.5C0.00146484 16.2677 1.2855 13.1677 3.5711 10.8821C5.8567 8.59654 8.95664 7.3125 12.189 7.3125Z" fill="#32B4FF"/>
<path fill-rule="evenodd" clip-rule="evenodd" d="M19.5015 13C18.2159 13 16.9592 13.3812 15.8903 14.0954C14.8213 14.8097 13.9882 15.8248 13.4963 17.0126C13.0043 18.2003 12.8756 19.5072 13.1264 20.7681C13.3772 22.029 13.9962 23.1872 14.9053 24.0962C15.8143 25.0052 16.9725 25.6243 18.2334 25.8751C19.4943 26.1259 20.8012 25.9972 21.9889 25.5052C23.1766 25.0132 24.1918 24.1801 24.906 23.1112C25.6202 22.0423 26.0015 20.7856 26.0015 19.5V6.5C26.0015 8.22391 25.3166 9.87721 24.0977 11.0962C22.8787 12.3152 21.2254 13 19.5015 13Z" fill="#0082BE"/>
<path fill-rule="evenodd" clip-rule="evenodd" d="M18.3153 6.91841C18.515 6.83596 18.733 6.80808 18.9471 6.83762C19.1611 6.86717 19.3634 6.95309 19.5333 7.08656C19.7032 7.22004 19.8346 7.39629 19.9139 7.59724C19.9933 7.7982 20.0178 8.01664 19.985 8.23019L18.1828 19.946C18.151 20.1533 18.0662 20.3488 17.9366 20.5137C17.8071 20.6786 17.6372 20.8073 17.4433 20.8873C17.2495 20.9673 17.0383 20.996 16.8302 20.9705C16.622 20.945 16.424 20.8663 16.2552 20.7419L10.9406 16.826C10.8449 16.7554 10.7658 16.6647 10.709 16.5602C10.6522 16.4557 10.619 16.34 10.6118 16.2213C10.6046 16.1026 10.6236 15.9838 10.6673 15.8732C10.7111 15.7626 10.7786 15.6629 10.8651 15.5813L15.8242 10.8976C15.8611 10.8628 15.8836 10.8154 15.8873 10.7647C15.891 10.7141 15.8757 10.6639 15.8442 10.6241C15.8128 10.5842 15.7675 10.5576 15.7174 10.5494C15.6673 10.5412 15.616 10.5521 15.5735 10.5799L9.01744 14.8557C8.73642 15.039 8.4206 15.1623 8.08974 15.2178C7.75889 15.2734 7.42012 15.2601 7.09465 15.1787L4.01853 14.4097C3.85259 14.3682 3.70396 14.2755 3.59381 14.1447C3.48365 14.0138 3.41759 13.8516 3.40503 13.681C3.39247 13.5105 3.43405 13.3403 3.52386 13.1947C3.61366 13.0492 3.74711 12.9357 3.90519 12.8704L18.3153 6.91841Z" fill="white"/>
</svg>
