<svg width="26" height="26" viewBox="0 0 26 26" fill="none" xmlns="http://www.w3.org/2000/svg">
<g clip-path="url(#clip0_462_27596)">
<path fill-rule="evenodd" clip-rule="evenodd" d="M19.5015 26H6.50146C4.77756 26 3.12426 25.3152 1.90527 24.0962C0.686284 22.8772 0.00146484 21.2239 0.00146484 19.5V6.5C0.00146484 4.77609 0.686284 3.12279 1.90527 1.90381C3.12426 0.68482 4.77756 0 6.50146 0L19.5015 0C21.2254 0 22.8787 0.68482 24.0977 1.90381C25.3166 3.12279 26.0015 4.77609 26.0015 6.5V19.5C26.0015 21.2239 25.3166 22.8772 24.0977 24.0962C22.8787 25.3152 21.2254 26 19.5015 26Z" fill="#2864B4"/>
<path fill-rule="evenodd" clip-rule="evenodd" d="M12.189 7.3125H19.5015C20.4396 7.31368 21.3422 6.95423 22.0227 6.30852C22.7032 5.66281 23.1095 4.78023 23.1575 3.84336C23.2055 2.90649 22.8916 1.98701 22.2806 1.27512C21.6697 0.563234 20.8085 0.113405 19.8752 0.0186875C19.7509 0.0117812 19.6278 0 19.5015 0H6.50146C4.77756 0 3.12426 0.68482 1.90527 1.90381C0.686284 3.12279 0.00146484 4.77609 0.00146484 6.5L0.00146484 19.5C0.00146484 16.2677 1.2855 13.1677 3.5711 10.8821C5.8567 8.59654 8.95664 7.3125 12.189 7.3125Z" fill="#417DCD"/>
<path fill-rule="evenodd" clip-rule="evenodd" d="M19.5015 13C18.2159 13 16.9592 13.3812 15.8903 14.0954C14.8213 14.8097 13.9882 15.8248 13.4963 17.0126C13.0043 18.2003 12.8756 19.5072 13.1264 20.7681C13.3772 22.029 13.9962 23.1872 14.9053 24.0962C15.8143 25.0052 16.9725 25.6243 18.2334 25.8751C19.4943 26.1259 20.8012 25.9972 21.9889 25.5052C23.1766 25.0132 24.1918 24.1801 24.906 23.1112C25.6202 22.0423 26.0015 20.7856 26.0015 19.5V6.5C26.0015 8.22391 25.3166 9.87721 24.0977 11.0962C22.8787 12.3152 21.2254 13 19.5015 13Z" fill="#0F4B9B"/>
<path d="M7.31396 10.1562H5.68896C5.24023 10.1562 4.87646 10.52 4.87646 10.9688V20.3125C4.87646 20.7612 5.24023 21.125 5.68896 21.125H7.31396C7.7627 21.125 8.12646 20.7612 8.12646 20.3125V10.9688C8.12646 10.52 7.7627 10.1562 7.31396 10.1562Z" fill="white"/>
<path d="M6.50146 8.53125C7.62329 8.53125 8.53271 7.62183 8.53271 6.5C8.53271 5.37817 7.62329 4.46875 6.50146 4.46875C5.37964 4.46875 4.47021 5.37817 4.47021 6.5C4.47021 7.62183 5.37964 8.53125 6.50146 8.53125Z" fill="white"/>
<path fill-rule="evenodd" clip-rule="evenodd" d="M13.814 11.635C14.1416 11.0623 14.6147 10.5863 15.1854 10.2553C15.7561 9.9243 16.4042 9.74998 17.064 9.75C19.1306 9.75 21.1265 10.9688 21.1265 14.2188V20.3125C21.1265 20.528 21.0409 20.7347 20.8885 20.887C20.7361 21.0394 20.5295 21.125 20.314 21.125H18.689C18.4735 21.125 18.2668 21.0394 18.1144 20.887C17.9621 20.7347 17.8765 20.528 17.8765 20.3125V14.625C17.8765 14.0863 17.6625 13.5696 17.2815 13.1887C16.9006 12.8078 16.3839 12.5938 15.8452 12.5938C15.3065 12.5938 14.7898 12.8078 14.4089 13.1887C14.028 13.5696 13.814 14.0863 13.814 14.625V20.3125C13.814 20.528 13.7284 20.7347 13.576 20.887C13.4236 21.0394 13.217 21.125 13.0015 21.125H11.3765C11.161 21.125 10.9543 21.0394 10.8019 20.887C10.6496 20.7347 10.564 20.528 10.564 20.3125V10.9688C10.564 10.7533 10.6496 10.5466 10.8019 10.3942C10.9543 10.2419 11.161 10.1562 11.3765 10.1562H13.0015C13.217 10.1562 13.4236 10.2419 13.576 10.3942C13.7284 10.5466 13.814 10.7533 13.814 10.9688V11.635Z" fill="white"/>
</g>
<defs>
<clipPath id="clip0_462_27596">
<rect width="26" height="26" fill="white" transform="translate(0.00146484)"/>
</clipPath>
</defs>
</svg>
