<svg width="26" height="26" viewBox="0 0 26 26" fill="none" xmlns="http://www.w3.org/2000/svg">
<rect width="26" height="26" rx="6" fill="#40AE39"/>
<g clip-path="url(#clip0_437_16943)">
<path fill-rule="evenodd" clip-rule="evenodd" d="M19.7434 18.3143C19.6504 18.407 19.5383 18.5255 19.4194 18.6509C19.1228 18.9657 18.7522 19.357 18.52 19.5157C17.298 20.3507 15.6632 19.9512 14.5068 19.4694C12.9813 18.8338 11.3205 17.6622 9.82921 16.1708C8.33657 14.6792 7.16511 13.0179 6.5295 11.4932C6.04825 10.3366 5.64786 8.70145 6.48302 7.47919C6.64161 7.24677 7.03386 6.87678 7.34826 6.57958C7.47404 6.46107 7.59162 6.3491 7.68459 6.25643C7.84964 6.0922 8.07301 6 8.30585 6C8.53869 6 8.76206 6.0922 8.92711 6.25643L11.1755 8.5042C11.3397 8.66924 11.4318 8.89255 11.4318 9.12532C11.4318 9.35809 11.3397 9.5814 11.1755 9.74645L10.563 10.3577C10.3585 10.5608 10.225 10.8245 10.1824 11.1095C10.1397 11.3946 10.1903 11.6858 10.3265 11.9398C11.169 13.5298 12.4696 14.8302 14.0598 15.6724C14.3137 15.8086 14.6049 15.8591 14.8898 15.8164C15.1748 15.7737 15.4384 15.6401 15.6413 15.4355L16.2523 14.8242C16.4173 14.66 16.6407 14.5678 16.8735 14.5678C17.1064 14.5678 17.3298 14.66 17.4948 14.8242L19.7434 17.0724C19.9075 17.2373 19.9997 17.4606 19.9997 17.6933C19.9997 17.9261 19.9075 18.1494 19.7434 18.3143Z" fill="white"/>
</g>
<defs>
<clipPath id="clip0_437_16943">
<rect width="14" height="14" fill="white" transform="translate(6 6)"/>
</clipPath>
</defs>
</svg>
