<svg width="26" height="26" viewBox="0 0 26 26" fill="none" xmlns="http://www.w3.org/2000/svg">
<path d="M0 12.4583C0 6.58541 0 3.64894 1.82447 1.82447C3.64894 0 6.58541 0 12.4583 0H13.5416C19.4145 0 22.351 0 24.1755 1.82447C26 3.64894 26 6.58541 26 12.4583V13.5416C26 19.4145 26 22.351 24.1755 24.1755C22.3511 26 19.4146 26 13.5417 26H12.4584C6.58546 26 3.64899 26 1.82452 24.1755C0 22.3511 0 19.4146 0 13.5417V12.4583Z" fill="#2787F5"/>
<path fill-rule="evenodd" clip-rule="evenodd" d="M7.04203 8.125H5.14576C4.60397 8.125 4.49561 8.38002 4.49561 8.66115C4.49561 9.16332 5.1385 11.6538 7.48896 14.9478C9.05596 17.1973 11.2637 18.4166 13.2726 18.4166C14.478 18.4166 14.6271 18.1458 14.6271 17.6793V15.9791C14.6271 15.4374 14.7413 15.3293 15.123 15.3293C15.4042 15.3293 15.8864 15.4699 17.0114 16.5545C18.2971 17.84 18.5091 18.4166 19.2323 18.4166H21.1285C21.6704 18.4166 21.9412 18.1458 21.785 17.6113C21.614 17.0786 21.0001 16.3058 20.1855 15.3897C19.7435 14.8674 19.0806 14.3051 18.8797 14.0239C18.5985 13.6623 18.6788 13.5016 18.8797 13.1803C18.8797 13.1803 21.19 9.92652 21.4311 8.82192C21.5516 8.42019 21.4311 8.125 20.8576 8.125H18.9614C18.4792 8.125 18.2569 8.38002 18.1364 8.66115C18.1364 8.66115 17.1721 11.0111 15.806 12.5376C15.364 12.9794 15.1631 13.12 14.922 13.12C14.8015 13.12 14.627 12.9794 14.627 12.5778V8.82192C14.627 8.33986 14.4871 8.125 14.0852 8.125H11.1054C10.8041 8.125 10.6229 8.34869 10.6229 8.56075C10.6229 9.01768 11.3059 9.12311 11.3763 10.4085V13.2004C11.3763 13.8124 11.2657 13.9235 11.0247 13.9235C10.3818 13.9235 8.81805 11.563 7.89064 8.86199C7.70899 8.33706 7.52669 8.125 7.04203 8.125Z" fill="white"/>
</svg>
