<svg width="26" height="26" viewBox="0 0 26 26" fill="none" xmlns="http://www.w3.org/2000/svg">
<rect width="26" height="26" rx="6" fill="white"/>
<path d="M21.8414 7.57613L16.3824 13L21.8414 18.4239C21.9401 18.2176 22 17.9896 22 17.7461V8.25391C22 8.01038 21.9401 7.78239 21.8414 7.57613ZM20.418 6.67188H5.58203C5.3385 6.67188 5.11052 6.73175 4.90425 6.83043L11.8815 13.7725C12.4984 14.3894 13.5016 14.3894 14.1185 13.7725L21.0957 6.83043C20.8895 6.73175 20.6615 6.67188 20.418 6.67188ZM4.15855 7.57613C4.05987 7.78239 4 8.01038 4 8.25391V17.7461C4 17.9896 4.05987 18.2176 4.15855 18.4239L9.61758 13L4.15855 7.57613Z" fill="#3B3D41"/>
<path d="M15.6368 13.7461L14.8643 14.5186C13.8363 15.5465 12.1637 15.5465 11.1358 14.5186L10.3633 13.7461L4.9043 19.17C5.11056 19.2686 5.33855 19.3285 5.58207 19.3285H20.418C20.6615 19.3285 20.8895 19.2686 21.0958 19.17L15.6368 13.7461Z" fill="#3B3D41"/>
</svg>
