<svg width="26" height="26" viewBox="0 0 26 26" fill="none" xmlns="http://www.w3.org/2000/svg">
<path d="M21.3503 25.5576C15.8017 26.1496 10.2058 26.1496 4.65716 25.5576C3.57966 25.4438 2.57372 24.9641 1.80704 24.1985C1.04037 23.4329 0.559275 22.4277 0.443978 21.3503C-0.147993 15.8017 -0.147993 10.2058 0.443978 4.65716C0.557763 3.57966 1.03744 2.57372 1.80305 1.80704C2.56865 1.04037 3.57391 0.559275 4.65125 0.443978C10.1999 -0.147993 15.7958 -0.147993 21.3444 0.443978C22.4219 0.557763 23.4279 1.03744 24.1945 1.80305C24.9612 2.56865 25.4423 3.57391 25.5576 4.65125C26.1496 10.1999 26.1496 15.7958 25.5576 21.3444C25.4438 22.4219 24.9641 23.4279 24.1985 24.1945C23.4329 24.9612 22.4277 25.4423 21.3503 25.5576Z" fill="#E60000"/>
<path d="M20.7462 9.09275C20.4212 8.09264 19.3457 7.48696 18.356 7.34809C14.7959 6.96991 11.2058 6.96991 7.64574 7.34809C6.65596 7.48696 5.57756 8.08673 5.25551 9.09275C4.74881 11.6745 4.74881 14.3302 5.25551 16.912C5.58051 17.9106 6.65596 18.5178 7.64574 18.6566C11.2058 19.0348 14.7959 19.0348 18.356 18.6566C19.3457 18.5178 20.4241 17.918 20.7462 16.912C21.2529 14.3302 21.2529 11.6745 20.7462 9.09275ZM11.0568 16.1157V9.88752L16.1268 13.0016C14.4176 14.052 12.7586 15.0698 11.0568 16.1157Z" fill="white"/>
</svg>
