<svg width="26" height="26" viewBox="0 0 26 26" fill="none" xmlns="http://www.w3.org/2000/svg">
<path fill-rule="evenodd" clip-rule="evenodd" d="M13 26H6.5C4.77609 26 3.12279 25.3152 1.90381 24.0962C0.68482 22.8772 0 21.2239 0 19.5V6.5C0 4.77609 0.68482 3.12279 1.90381 1.90381C3.12279 0.68482 4.77609 0 6.5 0L19.5 0C21.2239 0 22.8772 0.68482 24.0962 1.90381C25.3152 3.12279 26 4.77609 26 6.5V19.5C26 21.2239 25.3152 22.8772 24.0962 24.0962C22.8772 25.3152 21.2239 26 19.5 26H17.0625C17.0625 25.4613 16.8485 24.9446 16.4676 24.5637C16.0866 24.1828 15.57 23.9688 15.0312 23.9688C14.4925 23.9688 13.9759 24.1828 13.5949 24.5637C13.214 24.9446 13 25.4613 13 26Z" fill="#3764B9"/>
<path fill-rule="evenodd" clip-rule="evenodd" d="M12.1875 7.3125H19.5C20.4381 7.31368 21.3408 6.95423 22.0213 6.30852C22.7018 5.66281 23.108 4.78023 23.156 3.84336C23.2041 2.90649 22.8901 1.98701 22.2792 1.27512C21.6682 0.563234 20.8071 0.113405 19.8737 0.0186875C19.7494 0.0117812 19.6263 0 19.5 0H6.5C4.77609 0 3.12279 0.68482 1.90381 1.90381C0.68482 3.12279 0 4.77609 0 6.5L0 19.5C0 16.2677 1.28404 13.1677 3.56964 10.8821C5.85524 8.59654 8.95517 7.3125 12.1875 7.3125Z" fill="#507DD2"/>
<path fill-rule="evenodd" clip-rule="evenodd" d="M19.5 13C18.2144 13 16.9577 13.3812 15.8888 14.0954C14.8199 14.8097 13.9868 15.8248 13.4948 17.0126C13.0028 18.2003 12.8741 19.5072 13.1249 20.7681C13.3757 22.029 13.9948 23.1872 14.9038 24.0962C15.8129 25.0052 16.971 25.6243 18.2319 25.8751C19.4928 26.1259 20.7997 25.9972 21.9874 25.5052C23.1752 25.0132 24.1903 24.1801 24.9046 23.1112C25.6188 22.0423 26 20.7856 26 19.5V6.5C26 8.22391 25.3152 9.87721 24.0962 11.0962C22.8772 12.3152 21.2239 13 19.5 13Z" fill="#1E4BA0"/>
<path fill-rule="evenodd" clip-rule="evenodd" d="M21.125 7.3125C21.125 7.52799 21.0394 7.73465 20.887 7.88702C20.7347 8.0394 20.528 8.125 20.3125 8.125H17.875C17.6595 8.125 17.4528 8.2106 17.3005 8.36298C17.1481 8.51535 17.0625 8.72201 17.0625 8.9375V12.1875H20.1338C20.2539 12.1875 20.3726 12.2142 20.4813 12.2656C20.5899 12.317 20.6858 12.3919 20.762 12.4849C20.8382 12.5778 20.8928 12.6865 20.922 12.8031C20.9511 12.9198 20.954 13.0414 20.9304 13.1592L20.4429 15.5967C20.4061 15.7809 20.3066 15.9467 20.1614 16.0658C20.0161 16.1849 19.8341 16.25 19.6462 16.25H17.0625V26H13V16.25H10.5625C10.347 16.25 10.1403 16.1644 9.98798 16.012C9.8356 15.8597 9.75 15.653 9.75 15.4375V13C9.75 12.7845 9.8356 12.5778 9.98798 12.4255C10.1403 12.2731 10.347 12.1875 10.5625 12.1875H13V8.9375C13 7.64457 13.5136 6.40459 14.4279 5.49035C15.3421 4.57611 16.5821 4.0625 17.875 4.0625H20.3125C20.528 4.0625 20.7347 4.1481 20.887 4.30048C21.0394 4.45285 21.125 4.65951 21.125 4.875V7.3125Z" fill="white"/>
</svg>
