<svg width="26" height="26" viewBox="0 0 26 26" fill="none" xmlns="http://www.w3.org/2000/svg">
<rect width="26" height="26" rx="6" fill="#21A038"/>
<g clip-path="url(#clip0_514_126)">
<path fill-rule="evenodd" clip-rule="evenodd" d="M19.7434 18.3146C19.6504 18.4073 19.5383 18.5258 19.4194 18.6511C19.1228 18.9659 18.7522 19.3573 18.52 19.516C17.298 20.351 15.6632 19.9514 14.5068 19.4696C12.9813 18.834 11.3205 17.6624 9.82921 16.171C8.33657 14.6795 7.16511 13.0181 6.5295 11.4935C6.04825 10.3369 5.64786 8.7017 6.48302 7.47943C6.64161 7.24701 7.03386 6.87702 7.34826 6.57982C7.47404 6.46131 7.59162 6.34934 7.68459 6.25667C7.84964 6.09244 8.07301 6.00024 8.30585 6.00024C8.53869 6.00024 8.76206 6.09244 8.92711 6.25667L11.1755 8.50444C11.3397 8.66948 11.4318 8.89279 11.4318 9.12557C11.4318 9.35834 11.3397 9.58165 11.1755 9.74669L10.563 10.358C10.3585 10.561 10.225 10.8247 10.1824 11.1098C10.1397 11.3948 10.1903 11.686 10.3265 11.94C11.169 13.5301 12.4696 14.8304 14.0598 15.6726C14.3137 15.8088 14.6049 15.8593 14.8898 15.8166C15.1748 15.774 15.4384 15.6404 15.6413 15.4358L16.2523 14.8245C16.4173 14.6602 16.6407 14.568 16.8735 14.568C17.1064 14.568 17.3298 14.6602 17.4948 14.8245L19.7434 17.0726C19.9075 17.2376 19.9997 17.4609 19.9997 17.6936C19.9997 17.9263 19.9075 18.1496 19.7434 18.3146Z" fill="#121418"/>
</g>
<defs>
<clipPath id="clip0_514_126">
<rect width="14" height="14" fill="white" transform="translate(6 6)"/>
</clipPath>
</defs>
</svg>
