<svg width="26" height="26" viewBox="0 0 26 26" fill="none" xmlns="http://www.w3.org/2000/svg">
<g clip-path="url(#clip0_469_74)">
<path d="M1.62493 1.76915C-0.418236 3.8914 -6.89626e-05 6.14582 -6.89626e-05 12.9947C-6.89626e-05 18.6822 -0.992402 24.3837 4.2011 25.726C5.82285 26.1431 20.1922 26.1431 21.8118 25.7238C23.9741 25.1659 25.7334 23.412 25.9739 20.3537C26.0075 19.9269 26.0075 6.06999 25.9728 5.63449C25.7172 2.3769 23.7119 0.499487 21.0697 0.119237C20.4641 0.0314873 20.3428 0.00548727 17.2358 7.06092e-05C6.21501 0.00548727 3.79918 -0.485263 1.62493 1.76915Z" fill="url(#paint0_linear_469_74)"/>
<path d="M12.9978 3.40062C9.06421 3.40062 5.32888 3.05071 3.90213 6.71237C3.31279 8.22471 3.39838 10.1888 3.39838 13.0011C3.39838 15.469 3.31929 17.7884 3.90213 19.2888C5.32563 22.9526 9.0913 22.6016 12.9956 22.6016C16.7624 22.6016 20.6461 22.9938 22.0902 19.2888C22.6806 17.7613 22.594 15.8265 22.594 13.0011C22.594 9.25062 22.8009 6.82937 20.982 5.01154C19.1403 3.16987 16.6497 3.40062 12.9935 3.40062H12.9978ZM12.1376 5.13071C20.3428 5.11771 21.3871 4.20554 20.8108 16.8773C20.606 21.359 17.1935 20.8672 12.9989 20.8672C5.35054 20.8672 5.13063 20.6484 5.13063 12.9968C5.13063 5.25637 5.7373 5.13504 12.1376 5.12854V5.13071ZM18.122 6.72429C17.8165 6.72429 17.5236 6.84562 17.3077 7.06158C17.0917 7.27754 16.9704 7.57045 16.9704 7.87587C16.9704 8.18129 17.0917 8.4742 17.3077 8.69017C17.5236 8.90613 17.8165 9.02746 18.122 9.02746C18.4274 9.02746 18.7203 8.90613 18.9363 8.69017C19.1522 8.4742 19.2735 8.18129 19.2735 7.87587C19.2735 7.57045 19.1522 7.27754 18.9363 7.06158C18.7203 6.84562 18.4274 6.72429 18.122 6.72429ZM12.9978 8.07087C12.3504 8.07094 11.7094 8.19852 11.1113 8.44633C10.5132 8.69414 9.96984 9.05732 9.51212 9.51513C8.58773 10.4397 8.06848 11.6937 8.06863 13.0011C8.06877 14.3086 8.58829 15.5624 9.51289 16.4868C10.4375 17.4112 11.6914 17.9304 12.9989 17.9303C14.3063 17.9301 15.5602 17.4106 16.4846 16.486C17.4089 15.5614 17.9282 14.3075 17.928 13C17.9279 11.6926 17.4084 10.4388 16.4838 9.51437C15.5592 8.58997 14.3052 8.07073 12.9978 8.07087ZM12.9978 9.80096C17.2282 9.80096 17.2336 16.2013 12.9978 16.2013C8.76846 16.2013 8.76196 9.80096 12.9978 9.80096Z" fill="white"/>
</g>
<defs>
<linearGradient id="paint0_linear_469_74" x1="1.67479" y1="24.3394" x2="25.839" y2="3.42554" gradientUnits="userSpaceOnUse">
<stop stop-color="#FFDD55"/>
<stop offset="0.5" stop-color="#FF543E"/>
<stop offset="1" stop-color="#C837AB"/>
</linearGradient>
<clipPath id="clip0_469_74">
<rect width="26" height="26" fill="white"/>
</clipPath>
</defs>
</svg>
