<svg width="341" height="298" viewBox="0 0 341 298" fill="none" xmlns="http://www.w3.org/2000/svg">
<g opacity="0.6" filter="url(#filter0_f_2004_8294)">
<rect width="257.335" height="257.789" rx="6" transform="matrix(0.999913 0.013157 -0.484258 0.874925 5.19324 254.504)" fill="url(#paint0_linear_2004_8294)"/>
<rect x="0.257828" y="0.444041" width="256.335" height="256.789" rx="5.5" transform="matrix(0.999913 0.013157 -0.484258 0.874925 5.40829 254.556)" stroke="url(#paint1_linear_2004_8294)" stroke-opacity="0.5"/>
<rect width="257.335" height="257.789" rx="6" transform="matrix(0.999913 0.013157 -0.484258 0.874925 17.4609 275.701)" fill="url(#paint2_linear_2004_8294)"/>
</g>
<rect width="248.082" height="248.52" rx="6" transform="matrix(-0.999933 -0.0115967 0.482892 -0.87568 124.889 344.824)" fill="url(#paint3_linear_2004_8294)"/>
<rect x="-0.25852" y="-0.443638" width="247.082" height="247.52" rx="5.5" transform="matrix(-0.999933 -0.0115967 0.482892 -0.87568 124.586 343.989)" stroke="url(#paint4_linear_2004_8294)" stroke-opacity="0.5"/>
<rect width="248.082" height="248.52" rx="6" transform="matrix(-0.999933 -0.0115967 0.482892 -0.87568 113.03 324.408)" fill="url(#paint5_linear_2004_8294)"/>
<defs>
<filter id="filter0_f_2004_8294" x="-126.706" y="245.282" width="408.542" height="268.573" filterUnits="userSpaceOnUse" color-interpolation-filters="sRGB">
<feFlood flood-opacity="0" result="BackgroundImageFix"/>
<feBlend mode="normal" in="SourceGraphic" in2="BackgroundImageFix" result="shape"/>
<feGaussianBlur stdDeviation="4.65" result="effect1_foregroundBlur_2004_8294"/>
</filter>
<linearGradient id="paint0_linear_2004_8294" x1="35.741" y1="-5.29966e-06" x2="257.784" y2="257.402" gradientUnits="userSpaceOnUse">
<stop stop-color="#E0FFA0" stop-opacity="0.5"/>
<stop offset="1" stop-color="#A0CF1C" stop-opacity="0.5"/>
</linearGradient>
<linearGradient id="paint1_linear_2004_8294" x1="128.668" y1="0" x2="128.668" y2="257.789" gradientUnits="userSpaceOnUse">
<stop stop-color="white"/>
<stop offset="1" stop-color="white" stop-opacity="0"/>
</linearGradient>
<linearGradient id="paint2_linear_2004_8294" x1="35.741" y1="-5.29966e-06" x2="257.784" y2="257.402" gradientUnits="userSpaceOnUse">
<stop stop-color="#A0CF1C" stop-opacity="0.5"/>
<stop offset="1" stop-color="#E0FFA0" stop-opacity="0.5"/>
</linearGradient>
<linearGradient id="paint3_linear_2004_8294" x1="34.4558" y1="-5.10909e-06" x2="248.515" y2="248.146" gradientUnits="userSpaceOnUse">
<stop stop-color="white" stop-opacity="0.5"/>
<stop offset="1" stop-color="white" stop-opacity="0"/>
</linearGradient>
<linearGradient id="paint4_linear_2004_8294" x1="124.041" y1="0" x2="124.041" y2="248.52" gradientUnits="userSpaceOnUse">
<stop stop-color="white"/>
<stop offset="1" stop-color="white" stop-opacity="0"/>
</linearGradient>
<linearGradient id="paint5_linear_2004_8294" x1="34.4558" y1="-5.10909e-06" x2="248.515" y2="248.146" gradientUnits="userSpaceOnUse">
<stop stop-color="white" stop-opacity="0.5"/>
<stop offset="1" stop-color="white" stop-opacity="0"/>
</linearGradient>
</defs>
</svg>
