<svg width="14" height="14" viewBox="0 0 14 14" fill="none" xmlns="http://www.w3.org/2000/svg">
<g clip-path="url(#clip0_287_8788)">
<path fill-rule="evenodd" clip-rule="evenodd" d="M13.7434 12.3146C13.6504 12.4073 13.5383 12.5258 13.4194 12.6511C13.1228 12.9659 12.7522 13.3573 12.52 13.516C11.298 14.351 9.66316 13.9514 8.50677 13.4696C6.98129 12.834 5.32046 11.6624 3.82921 10.171C2.33657 8.67945 1.16511 7.0181 0.529504 5.49349C0.0482544 4.33685 -0.35214 2.7017 0.48302 1.47943C0.641614 1.24701 1.03386 0.877021 1.34826 0.579822C1.47404 0.461314 1.59162 0.349342 1.68459 0.256674C1.84964 0.0924406 2.07301 0.000244141 2.30585 0.000244141C2.53869 0.000244141 2.76206 0.0924406 2.92711 0.256674L5.17554 2.50444C5.33968 2.66948 5.43182 2.89279 5.43182 3.12557C5.43182 3.35834 5.33968 3.58165 5.17554 3.74669L4.56304 4.35796C4.35848 4.56102 4.22496 4.8247 4.18235 5.10976C4.13974 5.39482 4.19031 5.68602 4.32654 5.94002C5.16899 7.53007 6.46959 8.83044 8.05978 9.67263C8.31373 9.80881 8.60487 9.85932 8.88984 9.81664C9.17482 9.77395 9.43839 9.64036 9.64129 9.43575L10.2523 8.82446C10.4173 8.66022 10.6407 8.56803 10.8735 8.56803C11.1064 8.56803 11.3298 8.66022 11.4948 8.82446L13.7434 11.0726C13.9075 11.2376 13.9997 11.4609 13.9997 11.6936C13.9997 11.9263 13.9075 12.1496 13.7434 12.3146Z" fill="#ABD156"/>
</g>
<defs>
<clipPath id="clip0_287_8788">
<rect width="14" height="14" fill="white"/>
</clipPath>
</defs>
</svg>
