<svg width="30" height="30" viewBox="0 0 30 30" fill="none" xmlns="http://www.w3.org/2000/svg">
<g clip-path="url(#clip0_588_38516)">
<path fill-rule="evenodd" clip-rule="evenodd" d="M22.5 30H7.5C5.51088 30 3.60322 29.2098 2.1967 27.8033C0.790176 26.3968 0 24.4891 0 22.5V7.5C0 5.51088 0.790176 3.60322 2.1967 2.1967C3.60322 0.790176 5.51088 0 7.5 0L22.5 0C24.4891 0 26.3968 0.790176 27.8033 2.1967C29.2098 3.60322 30 5.51088 30 7.5V22.5C30 24.4891 29.2098 26.3968 27.8033 27.8033C26.3968 29.2098 24.4891 30 22.5 30Z" fill="#00D264"/>
<path fill-rule="evenodd" clip-rule="evenodd" d="M14.0625 8.4375H22.5C23.5824 8.43886 24.624 8.02411 25.4091 7.27906C26.1943 6.53401 26.6631 5.51565 26.7185 4.43465C26.7739 3.35364 26.4117 2.29271 25.7067 1.4713C25.0018 0.649885 24.0081 0.130852 22.9312 0.0215625C22.7878 0.0135938 22.6458 0 22.5 0H7.5C5.51088 0 3.60322 0.790176 2.1967 2.1967C0.790176 3.60322 0 5.51088 0 7.5L0 22.5C0 18.7704 1.48158 15.1935 4.11881 12.5563C6.75604 9.91908 10.3329 8.4375 14.0625 8.4375Z" fill="#00EB78"/>
<path fill-rule="evenodd" clip-rule="evenodd" d="M22.5 15C21.0166 15 19.5666 15.4399 18.3332 16.264C17.0999 17.0881 16.1386 18.2594 15.5709 19.6299C15.0032 21.0003 14.8547 22.5083 15.1441 23.9632C15.4335 25.418 16.1478 26.7544 17.1967 27.8033C18.2456 28.8522 19.582 29.5665 21.0368 29.8559C22.4917 30.1453 23.9997 29.9968 25.3701 29.4291C26.7406 28.8614 27.9119 27.9001 28.736 26.6668C29.5601 25.4334 30 23.9834 30 22.5V7.5C30 9.48912 29.2098 11.3968 27.8033 12.8033C26.3968 14.2098 24.4891 15 22.5 15Z" fill="#00B950"/>
<path fill-rule="evenodd" clip-rule="evenodd" d="M10.1593 22.0748C10.2841 22.0394 10.4149 22.0301 10.5434 22.0477C10.6719 22.0653 10.7954 22.1093 10.906 22.177C12.7698 23.2874 14.9751 23.6786 17.107 23.277C19.239 22.8754 21.1508 21.7086 22.4828 19.9962C23.8148 18.2838 24.4753 16.1437 24.34 13.9784C24.2046 11.8131 23.2828 9.77194 21.748 8.2387C20.2131 6.70546 18.1709 5.78585 16.0055 5.65282C13.8401 5.51979 11.7007 6.18252 9.98971 7.51635C8.2787 8.85018 7.11399 10.7632 6.71463 12.8956C6.31528 15.028 6.7088 17.2329 7.82118 19.0955C7.88863 19.2058 7.93246 19.3289 7.94988 19.457C7.96731 19.5852 7.95796 19.7155 7.92243 19.8398C7.66134 20.7637 7.03134 22.9687 7.03134 22.9687L10.1593 22.0748ZM6.1965 20.0316C4.85626 17.7723 4.38687 15.1016 4.87645 12.5208C5.36604 9.93998 6.78094 7.62667 8.85545 6.01526C10.93 4.40385 13.5214 3.60518 16.1431 3.76923C18.7648 3.93328 21.2364 5.04876 23.0939 6.90621C24.9513 8.76366 26.0668 11.2353 26.2309 13.857C26.3949 16.4787 25.5962 19.0701 23.9848 21.1446C22.3734 23.2191 20.0601 24.634 17.4793 25.1236C14.8985 25.6132 12.2277 25.1438 9.96853 23.8036C9.96853 23.8036 6.97931 24.6576 5.499 25.0809C5.41858 25.1038 5.33349 25.1049 5.25255 25.0838C5.17161 25.0628 5.09775 25.0206 5.03862 24.9615C4.97949 24.9023 4.93724 24.8285 4.91623 24.7475C4.89523 24.6666 4.89624 24.5815 4.91915 24.5011L6.1965 20.0316Z" fill="white"/>
<path fill-rule="evenodd" clip-rule="evenodd" d="M10.3037 11.6184C10.4495 13.7174 11.3453 15.6939 12.8275 17.1872C14.3098 18.6804 16.2796 19.5908 18.3774 19.7522H18.3784C18.7133 19.7781 19.0499 19.7312 19.365 19.6146C19.6801 19.4981 19.9662 19.3148 20.2037 19.0772L20.5309 18.75C20.6853 18.5954 20.7721 18.3858 20.7723 18.1673V17.4726C20.7723 17.3855 20.748 17.3002 20.7022 17.2261C20.6564 17.152 20.5909 17.0921 20.5131 17.0531L18.4229 16.0083C18.3349 15.9642 18.2352 15.9489 18.138 15.9646C18.0409 15.9804 17.9511 16.0263 17.8815 16.0959L16.9721 17.0053C16.9176 17.0598 16.8504 17.1001 16.7766 17.1225C16.7027 17.1449 16.6245 17.1488 16.5488 17.1337L16.5446 17.1328C15.6371 16.9513 14.8036 16.5053 14.1492 15.8508C13.4948 15.1964 13.0487 14.363 12.8673 13.4554L12.8663 13.4512C12.8513 13.3755 12.8551 13.2973 12.8775 13.2235C12.9 13.1497 12.9402 13.0825 12.9948 13.0279L13.9041 12.1186C13.9738 12.049 14.0197 11.9592 14.0354 11.862C14.0512 11.7648 14.0359 11.6652 13.9918 11.5772L12.947 9.487C12.908 9.40911 12.8481 9.34361 12.774 9.29783C12.6999 9.25205 12.6145 9.2278 12.5274 9.22778H11.9368C11.7966 9.22782 11.6579 9.2573 11.5297 9.3143C11.4016 9.37131 11.2868 9.45458 11.1929 9.55872L10.8816 9.90466C10.677 10.1318 10.5201 10.3978 10.4204 10.6868C10.3207 10.9758 10.2802 11.282 10.3013 11.587L10.3037 11.6184Z" fill="white"/>
</g>
<defs>
<clipPath id="clip0_588_38516">
<rect width="30" height="30" rx="15" fill="white"/>
</clipPath>
</defs>
</svg>
