<svg width="112" height="33" viewBox="0 0 112 33" fill="none" xmlns="http://www.w3.org/2000/svg">
<path d="M1.14 30.543V22.143H4.92C5.464 22.143 5.9 22.307 6.228 22.635C6.556 22.963 6.72 23.399 6.72 23.943V25.863C6.72 26.407 6.556 26.843 6.228 27.171C5.9 27.499 5.464 27.663 4.92 27.663H1.92V30.543H1.14ZM1.92 26.883H4.86C5.58 26.883 5.94 26.523 5.94 25.803V24.003C5.94 23.283 5.58 22.923 4.86 22.923H1.92V26.883ZM7.80563 29.103V28.551C7.80563 28.103 7.95363 27.735 8.24963 27.447C8.54563 27.151 8.91763 27.003 9.36563 27.003H11.5256V26.223C11.5256 25.959 11.4536 25.755 11.3096 25.611C11.1656 25.459 10.9576 25.383 10.6856 25.383H8.28563V24.603H10.7456C11.2016 24.603 11.5736 24.751 11.8616 25.047C12.1576 25.335 12.3056 25.707 12.3056 26.163V30.543H11.7656L11.5856 29.943H11.5256C11.4296 30.087 11.3256 30.207 11.2136 30.303C10.9096 30.543 10.5536 30.663 10.1456 30.663H9.36563C8.90963 30.663 8.53363 30.519 8.23763 30.231C7.94963 29.935 7.80563 29.559 7.80563 29.103ZM9.42563 29.883H10.2656C10.6576 29.883 10.9656 29.771 11.1896 29.547C11.4136 29.323 11.5256 29.015 11.5256 28.623V27.783H9.42563C8.86563 27.783 8.58563 28.063 8.58563 28.623V29.043C8.58563 29.603 8.86563 29.883 9.42563 29.883ZM15.727 29.883H17.287C17.847 29.883 18.127 29.603 18.127 29.043V26.763C18.127 26.203 17.847 25.923 17.287 25.923H16.147C15.755 25.923 15.447 26.035 15.223 26.259C14.999 26.483 14.887 26.791 14.887 27.183V29.043C14.887 29.603 15.167 29.883 15.727 29.883ZM14.107 29.103V24.783C14.107 24.175 14.251 23.699 14.539 23.355C14.827 23.003 15.223 22.779 15.727 22.683L18.559 22.203L18.727 22.983L15.907 23.463C15.227 23.583 14.887 24.023 14.887 24.783V25.863H14.947C15.043 25.719 15.147 25.599 15.259 25.503C15.563 25.263 15.919 25.143 16.327 25.143H17.347C17.803 25.143 18.175 25.291 18.463 25.587C18.759 25.875 18.907 26.247 18.907 26.703V29.103C18.907 29.559 18.759 29.935 18.463 30.231C18.175 30.519 17.803 30.663 17.347 30.663H15.667C15.211 30.663 14.835 30.519 14.539 30.231C14.251 29.935 14.107 29.559 14.107 29.103ZM20.3489 29.103V26.043C20.3489 25.587 20.4929 25.215 20.7809 24.927C21.0769 24.631 21.4529 24.483 21.9089 24.483H23.6489C24.1049 24.483 24.4769 24.631 24.7649 24.927C25.0609 25.215 25.2089 25.587 25.2089 26.043V29.103C25.2089 29.559 25.0609 29.935 24.7649 30.231C24.4769 30.519 24.1049 30.663 23.6489 30.663H21.9089C21.4529 30.663 21.0769 30.519 20.7809 30.231C20.4929 29.935 20.3489 29.559 20.3489 29.103ZM21.9689 29.883H23.5889C24.1489 29.883 24.4289 29.603 24.4289 29.043V26.103C24.4289 25.543 24.1489 25.263 23.5889 25.263H21.9689C21.4089 25.263 21.1289 25.543 21.1289 26.103V29.043C21.1289 29.603 21.4089 29.883 21.9689 29.883ZM27.9736 30.543V25.383H26.0536V24.603H30.6736V25.143L30.4336 25.383H28.7536V30.543H27.9736ZM31.1611 29.103V28.551C31.1611 28.103 31.3091 27.735 31.6051 27.447C31.9011 27.151 32.2731 27.003 32.7211 27.003H34.8811V26.223C34.8811 25.959 34.8091 25.755 34.6651 25.611C34.5211 25.459 34.3131 25.383 34.0411 25.383H31.6411V24.603H34.1011C34.5571 24.603 34.9291 24.751 35.2171 25.047C35.5131 25.335 35.6611 25.707 35.6611 26.163V30.543H35.1211L34.9411 29.943H34.8811C34.7851 30.087 34.6811 30.207 34.5691 30.303C34.2651 30.543 33.9091 30.663 33.5011 30.663H32.7211C32.2651 30.663 31.8891 30.519 31.5931 30.231C31.3051 29.935 31.1611 29.559 31.1611 29.103ZM32.7811 29.883H33.6211C34.0131 29.883 34.3211 29.771 34.5451 29.547C34.7691 29.323 34.8811 29.015 34.8811 28.623V27.783H32.7811C32.2211 27.783 31.9411 28.063 31.9411 28.623V29.043C31.9411 29.603 32.2211 29.883 32.7811 29.883ZM37.2825 28.983V26.043C37.2825 25.587 37.4265 25.215 37.7145 24.927C38.0105 24.631 38.3865 24.483 38.8425 24.483H40.4625C40.9185 24.483 41.2905 24.631 41.5785 24.927C41.8745 25.215 42.0225 25.587 42.0225 26.043V28.083H38.0625V28.923C38.0625 29.483 38.3425 29.763 38.9025 29.763H41.7825V30.543H38.8425C38.3865 30.543 38.0105 30.399 37.7145 30.111C37.4265 29.815 37.2825 29.439 37.2825 28.983ZM38.0625 27.303H41.2425V26.103C41.2425 25.543 40.9625 25.263 40.4025 25.263H38.9025C38.3425 25.263 38.0625 25.543 38.0625 26.103V27.303ZM43.4583 30.543V30.123L44.0583 24.603H44.9583L46.6983 28.623H46.7583L48.4983 24.603H49.3983L49.9983 30.123V30.543H49.2183L48.7983 25.863H48.7383L47.0583 29.703H46.3983L44.7183 25.863H44.6583L44.2383 30.543H43.4583ZM54.3216 28.983V26.163C54.3216 25.707 54.4656 25.335 54.7536 25.047C55.0496 24.751 55.4256 24.603 55.8816 24.603H58.4616V25.143L58.2216 25.383H55.9416C55.3816 25.383 55.1016 25.663 55.1016 26.223V28.923C55.1016 29.483 55.3816 29.763 55.9416 29.763H58.4616V30.543H55.8816C55.4256 30.543 55.0496 30.399 54.7536 30.111C54.4656 29.815 54.3216 29.439 54.3216 28.983ZM62.0695 30.543V29.763L65.5495 26.463C65.7015 26.311 65.8135 26.191 65.8855 26.103C65.9575 26.007 66.0295 25.863 66.1015 25.671C66.1735 25.479 66.2095 25.263 66.2095 25.023V24.003C66.2095 23.283 65.8495 22.923 65.1295 22.923H62.4295L62.1895 22.683V22.143H65.1895C65.7335 22.143 66.1695 22.307 66.4975 22.635C66.8255 22.963 66.9895 23.399 66.9895 23.943V25.083C66.9895 25.403 66.9375 25.695 66.8335 25.959C66.7375 26.215 66.6335 26.411 66.5215 26.547C66.4175 26.675 66.2735 26.827 66.0895 27.003L63.1495 29.703V29.763H66.9895V30.543H62.0695ZM68.6709 28.863V23.823C68.6709 23.279 68.8349 22.843 69.1629 22.515C69.4909 22.187 69.9269 22.023 70.4709 22.023H72.0909C72.6349 22.023 73.0709 22.187 73.3989 22.515C73.7269 22.843 73.8909 23.279 73.8909 23.823V28.863C73.8909 29.407 73.7229 29.843 73.3869 30.171C73.0589 30.499 72.6229 30.663 72.0789 30.663H70.4709C69.9269 30.663 69.4909 30.499 69.1629 30.171C68.8349 29.843 68.6709 29.407 68.6709 28.863ZM70.5309 29.883H72.0309C72.7509 29.883 73.1109 29.523 73.1109 28.803V23.883C73.1109 23.163 72.7509 22.803 72.0309 22.803H70.5309C69.8109 22.803 69.4509 23.163 69.4509 23.883V28.803C69.4509 29.523 69.8109 29.883 70.5309 29.883ZM75.4477 30.543V29.823H76.9477V23.763H75.5077V23.043H76.9477V22.083H77.7277V29.823H79.2277V30.543H75.4477ZM79.8319 28.863V27.243C79.8319 26.971 79.8999 26.703 80.0359 26.439C80.1719 26.167 80.4039 25.815 80.7319 25.383L83.1919 22.143H83.9119V22.503L81.6319 25.503V25.563H83.3719C83.9159 25.563 84.3519 25.727 84.6799 26.055C85.0079 26.383 85.1719 26.819 85.1719 27.363V28.863C85.1719 29.407 85.0079 29.843 84.6799 30.171C84.3519 30.499 83.9159 30.663 83.3719 30.663H81.6319C81.0879 30.663 80.6519 30.499 80.3239 30.171C79.9959 29.843 79.8319 29.407 79.8319 28.863ZM81.6919 29.883H83.3119C84.0319 29.883 84.3919 29.523 84.3919 28.803V27.423C84.3919 26.703 84.0319 26.343 83.3119 26.343H81.6919C80.9719 26.343 80.6119 26.703 80.6119 27.423V28.803C80.6119 29.523 80.9719 29.883 81.6919 29.883ZM89.6109 30.543V24.603H93.2709V25.131L93.0309 25.383H90.3909V30.543H89.6109ZM93.9309 29.103V26.043C93.9309 25.587 94.0749 25.215 94.3629 24.927C94.6589 24.631 95.0349 24.483 95.4909 24.483H97.2309C97.6869 24.483 98.0589 24.631 98.3469 24.927C98.6429 25.215 98.7909 25.587 98.7909 26.043V29.103C98.7909 29.559 98.6429 29.935 98.3469 30.231C98.0589 30.519 97.6869 30.663 97.2309 30.663H95.4909C95.0349 30.663 94.6589 30.519 94.3629 30.231C94.0749 29.935 93.9309 29.559 93.9309 29.103ZM95.5509 29.883H97.1709C97.7309 29.883 98.0109 29.603 98.0109 29.043V26.103C98.0109 25.543 97.7309 25.263 97.1709 25.263H95.5509C94.9909 25.263 94.7109 25.543 94.7109 26.103V29.043C94.7109 29.603 94.9909 29.883 95.5509 29.883ZM99.5156 32.043V29.763H99.8756C100.004 29.707 100.132 29.615 100.26 29.487C100.524 29.207 100.676 28.859 100.716 28.443L101.076 24.603H104.856V29.763H105.636V32.043H104.856V30.543H100.296V32.043H99.5156ZM100.896 29.763H104.076V25.383H101.796L101.496 28.443C101.448 28.859 101.336 29.195 101.16 29.451C101.072 29.563 100.984 29.647 100.896 29.703V29.763ZM106.478 29.103V28.551C106.478 28.103 106.626 27.735 106.922 27.447C107.218 27.151 107.59 27.003 108.038 27.003H110.198V26.223C110.198 25.959 110.126 25.755 109.982 25.611C109.838 25.459 109.63 25.383 109.358 25.383H106.958V24.603H109.418C109.874 24.603 110.246 24.751 110.534 25.047C110.83 25.335 110.978 25.707 110.978 26.163V30.543H110.438L110.258 29.943H110.198C110.102 30.087 109.998 30.207 109.886 30.303C109.582 30.543 109.226 30.663 108.818 30.663H108.038C107.582 30.663 107.206 30.519 106.91 30.231C106.622 29.935 106.478 29.559 106.478 29.103ZM108.098 29.883H108.938C109.33 29.883 109.638 29.771 109.862 29.547C110.086 29.323 110.198 29.015 110.198 28.623V27.783H108.098C107.538 27.783 107.258 28.063 107.258 28.623V29.043C107.258 29.603 107.538 29.883 108.098 29.883Z" fill="white"/>
<path fill-rule="evenodd" clip-rule="evenodd" d="M79.6459 12.6195C80.5371 13.1528 81.476 13.5978 82.4497 13.9485C83.1734 14.1945 83.9302 14.323 84.6927 14.3292C85.3184 14.3614 85.9391 14.2019 86.4758 13.8711C86.6778 13.7525 86.8459 13.5815 86.9631 13.3755C87.0803 13.1694 87.1426 12.9354 87.1437 12.697C87.1437 12.0131 86.3498 11.239 84.7557 10.3874L84.1635 10.0584L82.9537 9.41321C81.937 8.92243 81.0444 8.19835 80.3453 7.29716C79.7787 6.52646 79.4794 5.58432 79.4947 4.61984C79.4855 3.97405 79.6284 3.3355 79.9114 2.75828C80.1944 2.18105 80.609 1.68214 81.1202 1.30382C82.3376 0.398186 83.8196 -0.0567964 85.3228 0.0135442C86.0142 0.0200274 86.7036 0.0891161 87.3831 0.219993C88.2166 0.382427 89.0394 0.597891 89.8467 0.865131V4.81337C89.0673 4.34457 88.2467 3.95147 87.3957 3.63922C86.763 3.39092 86.0945 3.25142 85.4173 3.22634C84.9203 3.20081 84.427 3.32652 83.9996 3.58762C83.8384 3.69331 83.7063 3.83951 83.6158 4.01229C83.5254 4.18507 83.4797 4.37868 83.483 4.57468C83.4847 4.87723 83.5946 5.16866 83.7917 5.39399C84.0471 5.69591 84.363 5.93796 84.7179 6.10365L86.8098 7.18748C88.1391 7.78789 89.3433 8.64425 90.3571 9.70997C90.9611 10.4909 91.2817 11.4623 91.2644 12.4583C91.2878 13.2149 91.1388 13.9668 90.8294 14.6543C90.5199 15.3418 90.0583 15.9461 89.4813 16.4194C88.1299 17.4835 86.452 18.0189 84.7494 17.929C84.0207 17.9241 83.2936 17.8572 82.5757 17.729C81.707 17.5831 80.8484 17.3806 80.005 17.1226L79.6459 12.6195ZM63.3774 0.581269V9.8003C63.2928 10.9785 63.5992 12.1515 64.2469 13.1292C64.5706 13.5118 64.9777 13.811 65.4352 14.0026C65.8927 14.1943 66.3879 14.273 66.8806 14.2324C67.3608 14.2657 67.8422 14.1905 68.2908 14.0121C68.7394 13.8337 69.1442 13.5565 69.4765 13.2002C70.1252 12.3495 70.4439 11.2834 70.3712 10.2067V0.581269H74.1958V10.2067C74.1958 12.626 73.5342 14.5227 72.211 15.8775C70.8879 17.2323 69.0607 17.9032 66.6979 17.9032C64.3351 17.9032 62.4701 17.2581 61.147 15.8904C59.8238 14.5227 59.1686 12.6647 59.1686 10.2325V0.555458L63.3774 0.581269ZM37.4185 17.3549V0.0393552H37.8218L48.9551 9.82609V0.581269H52.8994V18H52.5276L41.3565 8.20681V17.3613L37.4185 17.3549ZM19.7198 17.3549H15.4164L24.5399 0.0522509H24.8108L33.7263 17.3549H29.2591C26.9971 12.4776 27.0727 12.626 24.4895 6.76814C21.6604 13.026 22.385 11.7357 19.7198 17.3613V17.3549ZM1.15165 12.6131C2.04289 13.1463 2.98173 13.5913 3.95545 13.9421C4.6813 14.1881 5.44024 14.3166 6.20481 14.3227C6.82831 14.3536 7.44675 14.1942 7.98161 13.8647C8.18437 13.7463 8.35332 13.5756 8.4716 13.3696C8.58989 13.1636 8.65339 12.9295 8.65579 12.6905C8.65579 12.0067 7.85559 11.2325 6.26151 10.3809L5.66924 10.0519L4.45952 9.40675C3.44279 8.91598 2.55018 8.19189 1.85102 7.2907C1.28748 6.51841 0.988497 5.57735 1.00042 4.61338C0.991231 3.96759 1.13418 3.32904 1.41715 2.75182C1.70012 2.17459 2.11478 1.67569 2.62601 1.29736C3.84343 0.391729 5.32534 -0.063254 6.82857 0.00708649C7.51995 0.0135697 8.20943 0.0826584 8.88892 0.213535C9.7224 0.37597 10.5452 0.591433 11.3525 0.858674V4.81337C10.5731 4.34457 9.75248 3.95147 8.90151 3.63922C8.26876 3.39092 7.60028 3.25142 6.9231 3.22634C6.42607 3.20081 5.93279 3.32652 5.50544 3.58762C5.3442 3.69331 5.21206 3.83951 5.12162 4.01229C5.03118 4.18507 4.98545 4.37868 4.98878 4.57468C4.99051 4.87723 5.10032 5.16866 5.2975 5.39399C5.55557 5.68966 5.87102 5.92697 6.22371 6.09075L8.31555 7.17458C9.64487 7.775 10.8491 8.63135 11.8628 9.69707C12.4697 10.4764 12.7907 11.4488 12.7702 12.4454C12.7936 13.202 12.6446 13.9539 12.3352 14.6414C12.0257 15.3289 11.5641 15.9332 10.987 16.4065C9.63761 17.4697 7.96198 18.005 6.26151 17.9161C5.53275 17.9117 4.80564 17.8448 4.08778 17.7161C3.21693 17.571 2.35615 17.3684 1.51079 17.1097L1.15165 12.6131ZM96.7145 17.3549V0.581269H100.93V6.74879H107.829V0.587727H112V17.3613H107.81V10.3229H100.93V17.3613L96.7145 17.3549Z" fill="white"/>
</svg>
