<svg width="14" height="14" viewBox="0 0 14 14" fill="none" xmlns="http://www.w3.org/2000/svg">
<g clip-path="url(#clip0_588_38285)">
<path fill-rule="evenodd" clip-rule="evenodd" d="M13.7434 12.3145C13.6504 12.4071 13.5383 12.5256 13.4194 12.651C13.1228 12.9658 12.7522 13.3571 12.52 13.5158C11.298 14.3509 9.66316 13.9513 8.50677 13.4695C6.98129 12.8339 5.32046 11.6623 3.82921 10.1709C2.33657 8.67933 1.16511 7.01798 0.529504 5.49337C0.0482544 4.33673 -0.35214 2.70158 0.48302 1.47931C0.641614 1.24689 1.03386 0.876899 1.34826 0.5797C1.47404 0.461192 1.59162 0.34922 1.68459 0.256552C1.84964 0.0923186 2.07301 0.00012207 2.30585 0.00012207C2.53869 0.00012207 2.76206 0.0923186 2.92711 0.256552L5.17554 2.50432C5.33968 2.66936 5.43182 2.89267 5.43182 3.12544C5.43182 3.35822 5.33968 3.58153 5.17554 3.74657L4.56304 4.35784C4.35848 4.5609 4.22496 4.82458 4.18235 5.10964C4.13974 5.3947 4.19031 5.68589 4.32654 5.9399C5.16899 7.52995 6.46959 8.83032 8.05978 9.67251C8.31373 9.80869 8.60487 9.8592 8.88984 9.81652C9.17482 9.77383 9.43839 9.64024 9.64129 9.43563L10.2523 8.82433C10.4173 8.6601 10.6407 8.5679 10.8735 8.5679C11.1064 8.5679 11.3298 8.6601 11.4948 8.82433L13.7434 11.0725C13.9075 11.2375 13.9997 11.4607 13.9997 11.6935C13.9997 11.9262 13.9075 12.1495 13.7434 12.3145Z" fill="white"/>
</g>
<defs>
<clipPath id="clip0_588_38285">
<rect width="14" height="14" fill="white"/>
</clipPath>
</defs>
</svg>
