<svg width="36" height="36" viewBox="0 0 36 36" fill="none" xmlns="http://www.w3.org/2000/svg">
<g clip-path="url(#clip0_209_9726)">
<path d="M33.9938 7.36416H26.1819V4.69362C26.181 3.4583 25.1803 2.45692 23.9449 2.45508H12.0551C10.8198 2.45692 9.81913 3.4583 9.81821 4.69362V7.36416H2.00624C0.898631 7.36508 0.000959048 8.26275 3.85949e-05 9.37037V17.2674C-0.00228658 17.6412 0.100493 18.0082 0.296656 18.3265C0.492819 18.6448 0.77447 18.9015 1.10949 19.0674L1.63637 19.3243V31.3286C1.63822 32.5524 2.62985 33.5441 3.85367 33.5459H32.1463C33.3702 33.5441 34.3618 32.5524 34.3636 31.3286V19.3243L34.8905 19.0608C35.2255 18.8949 35.5072 18.6382 35.7034 18.3199C35.8995 18.0017 36.0023 17.6347 36 17.2608V9.37029C35.9991 8.26268 35.1014 7.36501 33.9938 7.36416ZM11.4546 4.69362C11.4546 4.5342 11.5178 4.38128 11.6304 4.26839C11.743 4.1555 11.8957 4.09186 12.0551 4.09141H23.9449C24.1044 4.09184 24.2571 4.15548 24.3697 4.26837C24.4823 4.38126 24.5455 4.53419 24.5455 4.69362V7.36416H11.4546V4.69362ZM32.7273 31.3286C32.7269 31.4826 32.6655 31.6301 32.5567 31.7389C32.4478 31.8477 32.3003 31.9091 32.1464 31.9095H3.85375C3.69982 31.9091 3.55231 31.8477 3.44347 31.7389C3.33463 31.6301 3.27329 31.4826 3.27286 31.3286V20.1425L6.74688 21.8803C7.02561 22.0187 7.33247 22.0909 7.64364 22.0914H9.81836V22.9096C9.81836 24.2652 10.9173 25.3642 12.2729 25.3642C13.6285 25.3642 14.7274 24.2652 14.7274 22.9096V22.0914H21.2729V22.9096C21.2729 24.2652 22.3718 25.3642 23.7274 25.3642C25.083 25.3642 26.1819 24.2652 26.1819 22.9096V22.0914H28.3567C28.6678 22.0909 28.9747 22.0187 29.2534 21.8803L32.7274 20.1425V31.3286H32.7273ZM11.4546 22.9095V19.6368C11.4546 19.1849 11.821 18.8186 12.2728 18.8186C12.7247 18.8186 13.091 19.1849 13.091 19.6368V22.9095C13.091 23.3614 12.7247 23.7278 12.2728 23.7278C11.8209 23.7278 11.4546 23.3614 11.4546 22.9095ZM22.9091 22.9095V19.6368C22.9091 19.1849 23.2755 18.8186 23.7273 18.8186C24.1792 18.8186 24.5455 19.1849 24.5455 19.6368V22.9095C24.5455 23.3614 24.1792 23.7278 23.7273 23.7278C23.2755 23.7278 22.9091 23.3614 22.9091 22.9095ZM34.3637 17.2674C34.3636 17.3356 34.3444 17.4024 34.3082 17.4603C34.272 17.5181 34.2204 17.5647 34.1591 17.5947L28.5219 20.4158C28.4711 20.4413 28.4151 20.4547 28.3583 20.4551H26.1819V19.6369C26.1819 18.2813 25.083 17.1823 23.7274 17.1823C22.3718 17.1823 21.2729 18.2813 21.2729 19.6369V20.4551H14.7274V19.6369C14.7274 18.2813 13.6285 17.1823 12.2729 17.1823C10.9173 17.1823 9.81836 18.2813 9.81836 19.6369V20.4551H7.64356C7.58673 20.4547 7.53075 20.4413 7.47995 20.4158L1.84102 17.5964C1.77973 17.5664 1.72808 17.5198 1.69192 17.462C1.65576 17.4041 1.63654 17.3373 1.63645 17.2691V9.37029C1.63645 9.27222 1.67541 9.17816 1.74476 9.10881C1.81411 9.03946 1.90817 9.0005 2.00624 9.0005H33.9938C34.0919 9.0005 34.186 9.03946 34.2553 9.10881C34.3247 9.17816 34.3636 9.27222 34.3636 9.37029V17.2674H34.3637Z" fill="white"/>
</g>
<defs>
<clipPath id="clip0_209_9726">
<rect width="36" height="36" fill="white"/>
</clipPath>
</defs>
</svg>
