<svg width="32" height="32" viewBox="0 0 32 32" fill="none" xmlns="http://www.w3.org/2000/svg">
<g clip-path="url(#clip0_209_9729)">
<path d="M22.4624 22.9363C22.3232 22.9222 22.184 22.9634 22.0748 23.051C21.9656 23.1385 21.8953 23.2655 21.8789 23.4045C21.8625 23.5435 21.9014 23.6834 21.9873 23.7939C22.0731 23.9045 22.1989 23.9769 22.3376 23.9955C27.9461 24.6558 30.9333 26.435 30.9333 27.4659C30.9333 28.9134 25.2523 30.9326 16 30.9326C6.74773 30.9326 1.06667 28.9134 1.06667 27.4659C1.06667 26.435 4.05387 24.6558 9.6624 23.9955C9.80111 23.9769 9.92694 23.9045 10.0127 23.7939C10.0986 23.6834 10.1375 23.5435 10.1211 23.4045C10.1047 23.2655 10.0344 23.1385 9.92521 23.051C9.81605 22.9634 9.67684 22.9222 9.5376 22.9363C3.92213 23.5977 0 25.4601 0 27.4659C0 29.7187 5.496 31.9993 16 31.9993C26.504 31.9993 32 29.7187 32 27.4659C32 25.4601 28.0779 23.5977 22.4624 22.9363Z" fill="white"/>
<path d="M15.9055 29.2037L24.0874 17.3867C27.1562 13.2955 26.7124 6.57067 23.1375 2.99627C21.2058 1.064 18.6372 0 15.9055 0C13.1738 0 10.6052 1.064 8.67349 2.99573C5.09855 6.57013 4.65482 13.2949 7.71135 17.3701L15.9055 29.2037ZM15.9999 6.4C18.0586 6.4 19.7332 8.0752 19.7332 10.1333C19.7332 12.1915 18.0586 13.8667 15.9999 13.8667C13.9412 13.8667 12.2666 12.1915 12.2666 10.1333C12.2666 8.0752 13.9412 6.4 15.9999 6.4Z" fill="white"/>
</g>
<defs>
<clipPath id="clip0_209_9729">
<rect width="32" height="32" fill="white"/>
</clipPath>
</defs>
</svg>
