<svg width="38" height="27" viewBox="0 0 38 27" fill="none" xmlns="http://www.w3.org/2000/svg">
<g clip-path="url(#clip0_209_9733)">
<path d="M12.492 24.6128C12.4715 24.8132 12.4892 25.0225 12.5638 25.23C12.7459 25.7301 13.1734 26.1375 13.6798 26.2911C14.1503 26.4367 14.6184 26.3398 14.7605 26.1885L15.7421 25.1569C16.0262 24.8596 16.0979 24.3843 15.931 23.923C15.5203 23.1522 14.9699 22.8741 14.2651 22.7495L12.492 24.6128ZM11.179 19.4547L9.46331 21.2567C9.11473 21.628 9.01479 22.1988 9.20941 22.7458C9.41598 23.3236 9.90897 23.7938 10.499 23.9694C11.0575 24.1333 11.6179 24.0059 11.9689 23.6402L13.5574 21.9717C13.9084 21.6013 14.0059 21.0333 13.8113 20.4863C13.6047 19.9057 13.1089 19.4374 12.5217 19.2627C12.0531 19.1162 11.5032 19.1106 11.179 19.4547ZM7.77777 16.4896L6.1936 18.1553C5.84454 18.5238 5.74699 19.0965 5.93969 19.6453C6.14626 20.2213 6.63925 20.6914 7.22931 20.8671C7.78686 21.0333 8.35301 20.9036 8.52945 20.7205L10.2882 18.8722C10.6391 18.5009 10.7367 17.93 10.5421 17.384C10.3345 16.8043 9.84155 16.336 9.25149 16.1623C8.70877 15.989 8.10819 16.1431 7.77777 16.4896ZM4.67876 13.2061L2.92293 15.0553C2.57195 15.4257 2.47441 15.9937 2.66902 16.5379C2.87368 17.1204 3.36954 17.5887 3.9596 17.7643C4.51714 17.9272 5.08234 17.8008 5.25687 17.6154L7.01748 15.7671V15.7652C7.36846 15.3995 7.46601 14.8305 7.27139 14.2845C7.06769 13.702 6.57183 13.2337 5.98177 13.06C5.53086 12.9078 4.98527 12.8816 4.67876 13.2061ZM27.474 2.17773C26.3384 2.7996 24.7599 2.91105 23.2226 3.01922C22.0597 3.09696 20.86 3.17937 19.9978 3.49125L15.2042 5.22339C15.172 5.2356 15.1385 5.24394 15.1043 5.24821C14.8728 5.2838 14.6586 5.31424 14.4664 5.34046C13.2992 5.50155 13.1643 5.55072 13.03 5.88928C12.9076 6.20209 13.0419 6.65304 13.3738 7.03609C13.6444 7.35077 14.7036 8.33321 16.8826 7.82794L19.6124 7.47486C21.1411 7.28193 22.3667 8.25781 23.3455 9.04545L30.6868 14.7968L30.6926 14.794C32.1438 14.1993 33.6558 13.4257 34.9411 11.9094L27.474 2.17773Z" fill="white"/>
<path d="M17.3721 1.82754C16.9369 1.86687 16.4382 1.92072 15.9151 1.97411C13.0217 2.27661 11.4174 2.39555 10.6012 2.24758L3.08966 11.8224C3.35382 12.0627 3.58568 12.3349 3.77966 12.6325C4.40749 12.0031 5.35618 11.7784 6.28 12.0518C7.18661 12.3197 7.94355 13.0394 8.2601 13.9324C8.39446 14.3103 8.43654 14.6981 8.40211 15.0694C8.78641 15.0154 9.17814 15.0445 9.54972 15.1546C10.4539 15.4206 11.2137 16.1422 11.5279 17.0352C11.6642 17.4113 11.7072 17.798 11.6747 18.1694C12.0592 18.1151 12.4511 18.1452 12.8223 18.2574C13.7246 18.5253 14.4811 19.245 14.7976 20.1333C14.9965 20.6967 15.0042 21.2764 14.8426 21.7962C14.9348 21.8135 15.0295 21.8355 15.1237 21.8645C15.9333 22.1104 16.6209 22.7618 16.9169 23.5649C17.199 24.3422 17.0766 25.1589 16.6132 25.7451L17.9459 26.7889C18.272 27.0423 18.7473 27.0699 19.191 26.8592C19.6721 26.6306 20.0355 26.1666 20.1426 25.6473C20.184 25.4411 20.1769 25.2285 20.122 25.0254L18.4317 23.7011C18.3223 23.6137 18.2517 23.4881 18.235 23.3508C18.2182 23.2135 18.2565 23.0752 18.3418 22.965C18.3836 22.911 18.4361 22.8658 18.496 22.832C18.5559 22.7982 18.6222 22.7764 18.6908 22.768C18.7595 22.7596 18.8291 22.7646 18.8957 22.783C18.9623 22.8013 19.0245 22.8324 19.0787 22.8746L21.1109 24.4696C21.3127 24.6278 21.8908 24.67 22.4211 24.4255C22.9786 24.1647 23.3999 23.6271 23.5165 23.0273C23.6284 22.4602 23.4491 21.9104 23.0503 21.5958L21.2122 20.1553C21.1021 20.0688 21.031 19.9435 21.0142 19.8062C20.9974 19.6689 21.0362 19.5306 21.1223 19.4211C21.1636 19.3666 21.2156 19.3209 21.2754 19.2866C21.3352 19.2524 21.4014 19.2304 21.4701 19.222C21.5388 19.2135 21.6085 19.2188 21.6751 19.2375C21.7416 19.2562 21.8036 19.2879 21.8573 19.3307L24.5293 21.4234C24.931 21.7362 25.5081 21.7793 26.0413 21.5358C26.594 21.2769 27.0153 20.7402 27.1348 20.1338C27.2467 19.5667 27.0674 19.0188 26.6643 18.7014L23.9914 16.6114C23.8811 16.5238 23.81 16.3975 23.7932 16.2594C23.7764 16.1212 23.8152 15.9821 23.9015 15.8716C23.9437 15.8179 23.9965 15.7731 24.0566 15.7396C24.1167 15.7061 24.1831 15.6847 24.2517 15.6766C24.3204 15.6685 24.39 15.6739 24.4566 15.6924C24.5231 15.7109 24.5852 15.7422 24.6393 15.7845C24.6393 15.7845 28.698 18.9627 28.7008 18.9627C28.9026 19.1181 29.4779 19.1621 30.0058 18.9149C30.5643 18.6597 30.9827 18.123 31.1041 17.5185C31.2141 16.9505 31.0348 16.3988 30.6336 16.087L22.6898 9.86126C21.7784 9.12935 20.8369 8.37121 19.7433 8.51497L17.0684 8.85681C15.2653 9.28107 13.5644 8.86149 12.5808 7.72265C11.9879 7.03663 11.7861 6.18811 12.0525 5.50584C12.4259 4.55945 13.1412 4.46158 14.3218 4.29862C14.4983 4.27661 14.6881 4.24945 14.8971 4.21714L19.6415 2.50326C19.9499 2.39087 20.2913 2.31314 20.6447 2.2443C19.4249 1.78211 18.5407 1.75449 17.3721 1.82754ZM7.06181 0.0129726C6.19776 -0.0511811 5.40878 0.586609 4.27313 2.03498L1.36873 5.73997C0.318198 7.07643 -0.0753344 7.90762 0.0116922 8.6119C0.0815048 9.19069 0.49273 9.75871 0.900607 10.079L2.27821 11.1565L9.75915 1.62103L8.79086 0.861955C8.12525 0.34217 7.58014 0.0523077 7.06181 0.0129726ZM31.0506 0.00313797C30.5322 0.0349807 29.9823 0.318756 29.3115 0.831049L28.3327 1.57467L35.7098 11.1879L36.6633 10.4616C37.4881 9.83504 37.9089 9.27451 37.9859 8.69619C38.0811 7.99378 37.7 7.15604 36.6662 5.80225L33.8091 2.06167C32.6959 0.598316 31.917 -0.0511819 31.0506 0.00313797Z" fill="white"/>
</g>
<defs>
<clipPath id="clip0_209_9733">
<rect width="38" height="27" fill="white"/>
</clipPath>
</defs>
</svg>
