<svg width="36" height="36" viewBox="0 0 36 36" fill="none" xmlns="http://www.w3.org/2000/svg">
<g clip-path="url(#clip0_209_9737)">
<path d="M33.75 7.79619V12.3749H2.25V7.79619C2.26157 6.91189 2.62337 6.06827 3.25606 5.45034C3.88874 4.83242 4.74067 4.49063 5.625 4.49994H7.875V6.74994C7.875 7.64505 8.23058 8.50349 8.86351 9.13643C9.49645 9.76936 10.3549 10.1249 11.25 10.1249C12.1451 10.1249 13.0036 9.76936 13.6365 9.13643C14.2694 8.50349 14.625 7.64505 14.625 6.74994V4.49994H21.375V6.74994C21.375 7.64505 21.7306 8.50349 22.3635 9.13643C22.9964 9.76936 23.8549 10.1249 24.75 10.1249C25.6451 10.1249 26.5036 9.76936 27.1365 9.13643C27.7694 8.50349 28.125 7.64505 28.125 6.74994V4.49994H30.375C31.2593 4.49063 32.1113 4.83242 32.7439 5.45034C33.3766 6.06827 33.7384 6.91189 33.75 7.79619ZM2.25 14.6249V32.7037C2.26157 33.588 2.62337 34.4316 3.25606 35.0495C3.88874 35.6675 4.74067 36.0093 5.625 35.9999H30.375C31.2593 36.0093 32.1113 35.6675 32.7439 35.0495C33.3766 34.4316 33.7384 33.588 33.75 32.7037V14.6249H2.25ZM12.375 30.3749C12.3741 30.673 12.2553 30.9587 12.0445 31.1695C11.8337 31.3802 11.5481 31.4991 11.25 31.4999H9C8.70191 31.4991 8.41627 31.3802 8.20549 31.1695C7.9947 30.9587 7.87589 30.673 7.875 30.3749V28.1249C7.87589 27.8268 7.9947 27.5412 8.20549 27.3304C8.41627 27.1196 8.70191 27.0008 9 26.9999H11.25C11.5481 27.0008 11.8337 27.1196 12.0445 27.3304C12.2553 27.5412 12.3741 27.8268 12.375 28.1249V30.3749ZM12.375 22.4999C12.3741 22.798 12.2553 23.0837 12.0445 23.2945C11.8337 23.5052 11.5481 23.6241 11.25 23.6249H9C8.70191 23.6241 8.41627 23.5052 8.20549 23.2945C7.9947 23.0837 7.87589 22.798 7.875 22.4999V20.2499C7.87589 19.9518 7.9947 19.6662 8.20549 19.4554C8.41627 19.2446 8.70191 19.1258 9 19.1249H11.25C11.5481 19.1258 11.8337 19.2446 12.0445 19.4554C12.2553 19.6662 12.3741 19.9518 12.375 20.2499V22.4999ZM20.25 30.3749C20.2491 30.673 20.1303 30.9587 19.9195 31.1695C19.7087 31.3802 19.4231 31.4991 19.125 31.4999H16.875C16.5769 31.4991 16.2913 31.3802 16.0805 31.1695C15.8697 30.9587 15.7509 30.673 15.75 30.3749V28.1249C15.7509 27.8268 15.8697 27.5412 16.0805 27.3304C16.2913 27.1196 16.5769 27.0008 16.875 26.9999H19.125C19.4231 27.0008 19.7087 27.1196 19.9195 27.3304C20.1303 27.5412 20.2491 27.8268 20.25 28.1249V30.3749ZM20.25 22.4999C20.2491 22.798 20.1303 23.0837 19.9195 23.2945C19.7087 23.5052 19.4231 23.6241 19.125 23.6249H16.875C16.5769 23.6241 16.2913 23.5052 16.0805 23.2945C15.8697 23.0837 15.7509 22.798 15.75 22.4999V20.2499C15.7509 19.9518 15.8697 19.6662 16.0805 19.4554C16.2913 19.2446 16.5769 19.1258 16.875 19.1249H19.125C19.4231 19.1258 19.7087 19.2446 19.9195 19.4554C20.1303 19.6662 20.2491 19.9518 20.25 20.2499V22.4999ZM28.125 22.4999C28.1241 22.798 28.0053 23.0837 27.7945 23.2945C27.5837 23.5052 27.2981 23.6241 27 23.6249H24.75C24.4519 23.6241 24.1663 23.5052 23.9555 23.2945C23.7447 23.0837 23.6259 22.798 23.625 22.4999V20.2499C23.6259 19.9518 23.7447 19.6662 23.9555 19.4554C24.1663 19.2446 24.4519 19.1258 24.75 19.1249H27C27.2981 19.1258 27.5837 19.2446 27.7945 19.4554C28.0053 19.6662 28.1241 19.9518 28.125 20.2499V22.4999Z" fill="white"/>
<path d="M12.375 4.5V6.75C12.375 7.04837 12.2565 7.33452 12.0455 7.5455C11.8345 7.75647 11.5484 7.875 11.25 7.875C10.9516 7.875 10.6655 7.75647 10.4545 7.5455C10.2435 7.33452 10.125 7.04837 10.125 6.75V4.5C10.125 4.20163 10.2435 3.91548 10.4545 3.7045C10.6655 3.49353 10.9516 3.375 11.25 3.375C11.5484 3.375 11.8345 3.49353 12.0455 3.7045C12.2565 3.91548 12.375 4.20163 12.375 4.5ZM25.875 4.5V6.75C25.875 7.04837 25.7565 7.33452 25.5455 7.5455C25.3345 7.75647 25.0484 7.875 24.75 7.875C24.4516 7.875 24.1655 7.75647 23.9545 7.5455C23.7435 7.33452 23.625 7.04837 23.625 6.75V4.5C23.625 4.20163 23.7435 3.91548 23.9545 3.7045C24.1655 3.49353 24.4516 3.375 24.75 3.375C25.0484 3.375 25.3345 3.49353 25.5455 3.7045C25.7565 3.91548 25.875 4.20163 25.875 4.5Z" fill="white"/>
</g>
<defs>
<clipPath id="clip0_209_9737">
<rect width="36" height="36" fill="white"/>
</clipPath>
</defs>
</svg>
