<svg width="69" height="20" viewBox="0 0 69 20" fill="none" xmlns="http://www.w3.org/2000/svg">
<g clip-path="url(#clip0_506_22205)">
<path d="M65.8822 17.4152C67.2377 17.4152 68.198 17.1699 68.9136 16.6416V14.2454C68.1792 14.7548 67.2941 15.0756 66.0516 15.0756C63.9616 15.0756 63.0954 13.4529 63.0954 10.8869C63.0954 8.18878 64.1498 6.81141 66.0704 6.81141C67.2 6.81141 68.3109 7.20764 68.8948 7.58501V5.09443C68.2733 4.75481 67.2 4.50952 65.7317 4.50952C61.9846 4.50952 60.0451 7.20764 60.0451 10.9812C60.064 15.1133 61.9657 17.4152 65.8822 17.4152ZM47.5614 16.3208V13.9246C46.6577 14.5472 45.1137 15.0944 43.7016 15.0944C41.555 15.0944 40.7454 14.0756 40.6136 12.0001H47.6933V10.4529C47.6933 6.13215 45.7916 4.50952 42.873 4.50952C39.2956 4.50952 37.601 7.24535 37.601 11.0001C37.601 15.3208 39.7286 17.4152 43.4567 17.4152C45.3208 17.4152 46.6954 16.9058 47.5614 16.3208ZM20.6926 4.73594V9.64158H16.7762V4.73594H13.8389V17.1699H16.7762V11.9812H20.6926V17.1699H23.6299V4.73594H20.6926ZM36.8666 14.8303H35.5674V4.73594H27.0191V5.79255C27.0191 8.83026 26.8308 12.7548 25.7952 14.8303H24.8538V20.0001H27.5651V17.1699H34.1364V20.0001H36.8478V14.8303H36.8666ZM56.9194 17.1699H60.2521L55.5449 10.4718L59.687 4.73594H56.7311L52.5888 10.4718V4.73594H49.6515V17.1699H52.5888V11.0567L56.9194 17.1699ZM42.7978 6.81141C44.2476 6.81141 44.6995 8.01895 44.6995 9.58501V9.83026H40.6136C40.6889 7.84912 41.4044 6.81141 42.7978 6.81141ZM32.6301 14.8303H28.4877C29.2974 12.9623 29.5234 9.56615 29.5234 7.41518V7.03781H32.6301V14.8303Z" fill="#3B3D41"/>
<path d="M11.3915 17.1698H8.3977V2.32075H7.06087C4.61309 2.32075 3.33272 3.54716 3.33272 5.37735C3.33272 7.4528 4.21768 8.41508 6.04406 9.64148L7.55042 10.6603L3.21975 17.1698H0L3.89759 11.3585C1.65695 9.75468 0.395408 8.18868 0.395408 5.54716C0.395408 2.24528 2.69254 0 7.04199 0H11.3727V17.1698H11.3915Z" fill="#FC3F1D"/>
</g>
<defs>
<clipPath id="clip0_506_22205">
<rect width="69" height="20" fill="white"/>
</clipPath>
</defs>
</svg>
