<svg width="122" height="18" viewBox="0 0 122 18" fill="none" xmlns="http://www.w3.org/2000/svg">
<path d="M8.08326 0.696453C8.37181 -0.23215 9.62819 -0.232151 9.91674 0.696452L11.3805 5.40721C11.5096 5.82249 11.8797 6.10366 12.2973 6.10366H17.0342C17.968 6.10366 18.3562 7.35309 17.6008 7.927L13.7685 10.8384C13.4307 11.0951 13.2893 11.55 13.4184 11.9653L14.8822 16.676C15.1707 17.6047 14.1543 18.3768 13.3989 17.8029L9.56658 14.8915C9.22873 14.6349 8.77126 14.6349 8.43342 14.8915L4.60115 17.8029C3.84571 18.3768 2.82928 17.6047 3.11783 16.6761L4.58163 11.9653C4.71067 11.55 4.56931 11.0951 4.23147 10.8384L0.399188 7.927C-0.356246 7.35309 0.0319954 6.10366 0.965764 6.10366H5.70272C6.12031 6.10366 6.49042 5.82249 6.61946 5.40721L8.08326 0.696453Z" fill="#FF9A04"/>
<path d="M34.0833 0.696453C34.3718 -0.23215 35.6282 -0.232151 35.9167 0.696452L37.3805 5.40721C37.5096 5.82249 37.8797 6.10366 38.2973 6.10366H43.0342C43.968 6.10366 44.3562 7.35309 43.6008 7.927L39.7685 10.8384C39.4307 11.0951 39.2893 11.55 39.4184 11.9653L40.8822 16.676C41.1707 17.6047 40.1543 18.3768 39.3989 17.8029L35.5666 14.8915C35.2287 14.6349 34.7713 14.6349 34.4334 14.8915L30.6011 17.8029C29.8457 18.3768 28.8293 17.6047 29.1178 16.6761L30.5816 11.9653C30.7107 11.55 30.5693 11.0951 30.2315 10.8384L26.3992 7.927C25.6438 7.35309 26.032 6.10366 26.9658 6.10366H31.7027C32.1203 6.10366 32.4904 5.82249 32.6195 5.40721L34.0833 0.696453Z" fill="#FF9A04"/>
<path d="M60.0833 0.696453C60.3718 -0.23215 61.6282 -0.232151 61.9167 0.696452L63.3805 5.40721C63.5096 5.82249 63.8797 6.10366 64.2973 6.10366H69.0342C69.968 6.10366 70.3562 7.35309 69.6008 7.927L65.7685 10.8384C65.4307 11.0951 65.2893 11.55 65.4184 11.9653L66.8822 16.676C67.1707 17.6047 66.1543 18.3768 65.3989 17.8029L61.5666 14.8915C61.2287 14.6349 60.7713 14.6349 60.4334 14.8915L56.6011 17.8029C55.8457 18.3768 54.8293 17.6047 55.1178 16.6761L56.5816 11.9653C56.7107 11.55 56.5693 11.0951 56.2315 10.8384L52.3992 7.927C51.6438 7.35309 52.032 6.10366 52.9658 6.10366H57.7027C58.1203 6.10366 58.4904 5.82249 58.6195 5.40721L60.0833 0.696453Z" fill="#FF9A04"/>
<path d="M86.0833 0.696453C86.3718 -0.23215 87.6282 -0.232151 87.9167 0.696452L89.3805 5.40721C89.5096 5.82249 89.8797 6.10366 90.2973 6.10366H95.0342C95.968 6.10366 96.3562 7.35309 95.6008 7.927L91.7685 10.8384C91.4307 11.0951 91.2893 11.55 91.4184 11.9653L92.8822 16.676C93.1707 17.6047 92.1543 18.3768 91.3989 17.8029L87.5666 14.8915C87.2287 14.6349 86.7713 14.6349 86.4334 14.8915L82.6011 17.8029C81.8457 18.3768 80.8293 17.6047 81.1178 16.6761L82.5816 11.9653C82.7107 11.55 82.5693 11.0951 82.2315 10.8384L78.3992 7.927C77.6438 7.35309 78.032 6.10366 78.9658 6.10366H83.7027C84.1203 6.10366 84.4904 5.82249 84.6195 5.40721L86.0833 0.696453Z" fill="#FF9A04"/>
<path d="M112.083 0.696453C112.372 -0.23215 113.628 -0.232151 113.917 0.696452L115.381 5.40721C115.51 5.82249 115.88 6.10366 116.297 6.10366H121.034C121.968 6.10366 122.356 7.35309 121.601 7.927L117.769 10.8384C117.431 11.0951 117.289 11.55 117.418 11.9653L118.882 16.676C119.171 17.6047 118.154 18.3768 117.399 17.8029L113.567 14.8915C113.229 14.6349 112.771 14.6349 112.433 14.8915L108.601 17.8029C107.846 18.3768 106.829 17.6047 107.118 16.6761L108.582 11.9653C108.711 11.55 108.569 11.0951 108.231 10.8384L104.399 7.927C103.644 7.35309 104.032 6.10366 104.966 6.10366H109.703C110.12 6.10366 110.49 5.82249 110.619 5.40721L112.083 0.696453Z" fill="#FF9A04"/>
</svg>
